<?xml version="1.0" standalone="no"?>
<!DOCTYPE svg PUBLIC "-//W3C//DTD SVG 20010904//EN"
 "http://www.w3.org/TR/2001/REC-SVG-20010904/DTD/svg10.dtd">
<svg version="1.0" xmlns="http://www.w3.org/2000/svg"
 width="500.000000pt" height="500.000000pt" viewBox="0 0 500.000000 500.000000"
 preserveAspectRatio="xMidYMid meet">

<g transform="translate(0.000000,500.000000) scale(0.100000,-0.100000)"
fill="#1A1F84" stroke="none">
<path d="M1685 3005 l-25 -24 0 -449 c0 -439 0 -450 21 -476 41 -53 121 -26
134 46 3 18 5 224 3 456 l-3 424 -28 24 c-36 31 -71 31 -102 -1z"/>
<path d="M2086 3009 c-20 -16 -26 -29 -26 -59 0 -30 6 -43 26 -59 15 -12 37
-21 49 -21 12 0 34 9 49 21 20 16 26 29 26 59 0 30 -6 43 -26 59 -15 12 -37
21 -49 21 -12 0 -34 -9 -49 -21z"/>
<path d="M4265 3005 l-25 -24 0 -391 c0 -263 4 -406 12 -437 36 -144 236 -189
339 -76 45 48 49 78 49 355 0 271 -4 302 -48 352 -27 30 -93 56 -144 56 l-48
0 0 60 c0 70 -13 104 -47 119 -37 17 -62 13 -88 -14z m216 -332 c6 -16 9 -118
7 -261 -3 -218 -4 -235 -22 -248 -25 -18 -31 -18 -50 2 -14 13 -16 51 -16 255
0 147 4 248 10 260 16 29 58 25 71 -8z"/>
<path d="M527 2966 c-48 -18 -73 -40 -101 -91 -20 -39 -21 -52 -21 -375 0
-323 1 -336 21 -375 39 -71 96 -104 184 -105 123 -1 191 64 205 196 7 69 -6
102 -49 122 -55 27 -106 -18 -106 -92 0 -45 -29 -81 -57 -72 -37 12 -43 56
-43 330 0 281 5 308 50 314 32 5 50 -22 50 -75 0 -79 66 -117 124 -72 24 19
26 26 26 97 0 105 -23 152 -93 186 -58 29 -128 34 -190 12z"/>
<path d="M3127 2958 c-34 -26 -37 -65 -37 -454 0 -409 3 -439 48 -463 12 -6
74 -11 141 -11 117 0 120 1 140 26 28 35 26 69 -4 99 -21 22 -33 25 -90 25
l-65 0 0 354 c0 364 -4 407 -40 426 -26 14 -73 12 -93 -2z"/>
<path d="M1140 2824 c-46 -20 -68 -41 -94 -89 -20 -38 -21 -54 -21 -290 0
-137 4 -267 8 -288 10 -45 60 -105 104 -123 42 -18 134 -18 176 0 51 21 94 77
107 141 8 36 10 137 8 288 -3 214 -5 235 -24 272 -12 22 -30 48 -41 57 -51 46
-155 61 -223 32z m120 -143 c6 -12 10 -111 10 -251 0 -140 -4 -239 -10 -251
-6 -11 -21 -19 -35 -19 -14 0 -29 8 -35 19 -6 12 -10 111 -10 251 0 140 4 239
10 251 6 11 21 19 35 19 14 0 29 -8 35 -19z"/>
<path d="M2554 2821 c-44 -20 -74 -56 -92 -110 -8 -23 -12 -134 -12 -336 l0
-302 23 -21 c27 -25 74 -29 103 -8 18 14 19 32 24 319 5 318 8 337 50 337 42
0 45 -19 50 -337 5 -287 6 -305 24 -319 31 -22 79 -17 105 10 22 23 22 25 19
337 -3 355 -6 367 -81 417 -53 35 -153 42 -213 13z"/>
<path d="M3758 2830 c-84 -25 -128 -85 -128 -172 0 -65 19 -88 72 -88 41 0 68
25 68 63 0 26 30 67 49 67 23 0 41 -47 41 -103 l0 -59 -39 7 c-89 15 -178 -41
-201 -125 -7 -27 -10 -91 -8 -165 4 -134 15 -168 70 -207 28 -20 44 -23 108
-22 41 1 99 2 127 3 39 0 58 6 73 21 19 19 20 33 20 326 0 206 -4 320 -12 346
-26 87 -140 138 -240 108z m86 -432 c12 -16 16 -47 16 -113 0 -95 -13 -137
-43 -143 -39 -8 -47 15 -47 133 0 63 3 120 6 129 9 23 50 19 68 -6z"/>
<path d="M2086 2809 l-26 -20 0 -360 c0 -346 1 -360 20 -379 28 -28 81 -26
108 3 22 23 22 28 22 376 l0 352 -25 24 c-30 30 -64 32 -99 4z"/>
</g>
</svg>
