<?xml version="1.0" standalone="no"?>
<!DOCTYPE svg PUBLIC "-//W3C//DTD SVG 20010904//EN"
 "http://www.w3.org/TR/2001/REC-SVG-20010904/DTD/svg10.dtd">
<svg version="1.0" xmlns="http://www.w3.org/2000/svg"
 width="500.000000pt" height="500.000000pt" viewBox="0 0 500.000000 500.000000"
 preserveAspectRatio="xMidYMid meet">
<!-- 1A1F84 -->
<g transform="translate(0.000000,500.000000) scale(0.100000,-0.100000)"
fill="#1A1F84" stroke="none">
<path d="M1685 3005 l-25 -24 0 -449 c0 -439 0 -450 21 -476 41 -53 121 -26
134 46 3 18 5 224 3 456 l-3 424 -28 24 c-36 31 -71 31 -102 -1z"/>
<path d="M2086 3009 c-20 -16 -26 -29 -26 -59 0 -30 6 -43 26 -59 15 -12 37
-21 49 -21 12 0 34 9 49 21 20 16 26 29 26 59 0 30 -6 43 -26 59 -15 12 -37
21 -49 21 -12 0 -34 -9 -49 -21z"/>
<path d="M4265 3005 l-25 -24 0 -391 c0 -263 4 -406 12 -437 36 -144 236 -189
339 -76 45 48 49 78 49 355 0 271 -4 302 -48 352 -27 30 -93 56 -144 56 l-48
0 0 60 c0 70 -13 104 -47 119 -37 17 -62 13 -88 -14z m216 -332 c6 -16 9 -118
7 -261 -3 -218 -4 -235 -22 -248 -25 -18 -31 -18 -50 2 -14 13 -16 51 -16 255
0 147 4 248 10 260 16 29 58 25 71 -8z"/>
<path d="M527 2966 c-48 -18 -73 -40 -101 -91 -20 -39 -21 -52 -21 -375 0
-323 1 -336 21 -375 39 -71 96 -104 184 -105 123 -1 191 64 205 196 7 69 -6
102 -49 122 -55 27 -106 -18 -106 -92 0 -45 -29 -81 -57 -72 -37 12 -43 56
-43 330 0 281 5 308 50 314 32 5 50 -22 50 -75 0 -79 66 -117 124 -72 24 19
26 26 26 97 0 105 -23 152 -93 186 -58 29 -128 34 -190 12z"/>
<path d="M3127 2958 c-34 -26 -37 -65 -37 -454 0 -409 3 -439 48 -463 12 -6
74 -11 141 -11 117 0 120 1 140 26 28 35 26 69 -4 99 -21 22 -33 25 -90 25
l-65 0 0 354 c0 364 -4 407 -40 426 -26 14 -73 12 -93 -2z"/>
<path d="M1140 2824 c-46 -20 -68 -41 -94 -89 -20 -38 -21 -54 -21 -290 0
-137 4 -267 8 -288 10 -45 60 -105 104 -123 42 -18 134 -18 176 0 51 21 94 77
107 141 8 36 10 137 8 288 -3 214 -5 235 -24 272 -12 22 -30 48 -41 57 -51 46
-155 61 -223 32z m120 -143 c6 -12 10 -111 10 -251 0 -140 -4 -239 -10 -251
-6 -11 -21 -19 -35 -19 -14 0 -29 8 -35 19 -6 12 -10 111 -10 251 0 140 4 239
10 251 6 11 21 19 35 19 14 0 29 -8 35 -19z"/>
<path d="M2554 2821 c-44 -20 -74 -56 -92 -110 -8 -23 -12 -134 -12 -336 l0
-302 23 -21 c27 -25 74 -29 103 -8 18 14 19 32 24 319 5 318 8 337 50 337 42
0 45 -19 50 -337 5 -287 6 -305 24 -319 31 -22 79 -17 105 10 22 23 22 25 19
337 -3 355 -6 367 -81 417 -53 35 -153 42 -213 13z"/>
<path d="M3758 2830 c-84 -25 -128 -85 -128 -172 0 -65 19 -88 72 -88 41 0 68
25 68 63 0 26 30 67 49 67 23 0 41 -47 41 -103 l0 -59 -39 7 c-89 15 -178 -41
-201 -125 -7 -27 -10 -91 -8 -165 4 -134 15 -168 70 -207 28 -20 44 -23 108
-22 41 1 99 2 127 3 39 0 58 6 73 21 19 19 20 33 20 326 0 206 -4 320 -12 346
-26 87 -140 138 -240 108z m86 -432 c12 -16 16 -47 16 -113 0 -95 -13 -137
-43 -143 -39 -8 -47 15 -47 133 0 63 3 120 6 129 9 23 50 19 68 -6z"/>
<path d="M2086 2809 l-26 -20 0 -360 c0 -346 1 -360 20 -379 28 -28 81 -26
108 3 22 23 22 28 22 376 l0 352 -25 24 c-30 30 -64 32 -99 4z"/>
<path d="M867 1686 c-100 -36 -157 -122 -157 -237 0 -116 45 -200 132 -243
l52 -26 1606 0 1606 0 52 26 c88 44 132 126 132 248 0 63 -4 78 -33 126 -21
37 -48 64 -81 85 l-49 30 -1611 2 c-1328 2 -1618 0 -1649 -11z m73 -66 c18
-18 20 -33 20 -195 0 -168 -1 -175 -20 -175 -18 0 -20 7 -20 65 l0 65 -40 0
-40 0 0 -64 c0 -45 -4 -65 -14 -69 -30 -12 -36 16 -36 164 0 150 8 194 37 217
26 19 90 15 113 -8z m304 -1 c23 -18 27 -28 24 -63 -4 -49 -30 -58 -38 -12 -6
33 -30 52 -54 43 -14 -5 -16 -26 -16 -147 0 -121 2 -142 16 -147 24 -9 48 10
54 43 9 48 35 37 35 -15 0 -36 -5 -47 -27 -64 -23 -17 -34 -19 -65 -11 -58 14
-64 35 -61 207 3 143 4 150 27 168 31 25 72 24 105 -2z m201 11 c47 -18 72
-123 42 -180 -11 -21 -11 -31 -1 -55 16 -37 18 -127 3 -142 -24 -24 -39 -2
-39 57 0 63 -15 90 -51 90 -17 0 -19 -8 -19 -74 0 -75 -13 -99 -39 -73 -14 14
-15 341 -1 368 12 21 61 26 105 9z m155 -99 c4 -75 9 -104 20 -111 44 -28 60
3 60 120 0 74 3 92 16 97 25 9 34 -16 34 -103 0 -94 -12 -136 -46 -159 -21
-13 -24 -23 -24 -70 0 -48 -2 -55 -20 -55 -18 0 -20 7 -20 60 0 33 -4 60 -10
60 -5 0 -19 9 -30 20 -18 18 -20 33 -20 128 0 60 3 112 7 116 19 19 28 -9 33
-103z m305 99 c15 -6 32 -24 40 -45 19 -44 19 -136 1 -180 -12 -29 -23 -37
-60 -47 -45 -12 -46 -13 -46 -53 0 -47 -16 -71 -37 -54 -18 15 -19 359 -1 377
15 15 67 16 103 2z m260 -15 c0 -15 -8 -21 -32 -23 l-33 -3 0 -169 c0 -139 -3
-169 -15 -174 -27 -10 -35 31 -35 188 l0 156 -24 0 c-28 0 -40 14 -32 36 5 12
22 14 88 12 75 -3 83 -5 83 -23z m182 1 l28 -24 0 -152 0 -152 -28 -24 c-36
-31 -78 -31 -114 0 l-28 24 0 150 c0 145 1 151 24 176 32 34 80 35 118 2z
m288 14 c41 -16 55 -64 55 -190 0 -141 -12 -174 -70 -191 -28 -9 -50 -9 -68
-3 l-27 9 -3 179 c-2 123 1 183 9 192 13 16 66 18 104 4z m260 -15 c0 -17 -8
-20 -48 -23 l-48 -3 3 -52 3 -52 43 -3 c34 -3 42 -7 42 -23 0 -16 -7 -19 -45
-19 l-45 0 0 -74 0 -75 47 -3 c36 -2 49 -7 51 -20 3 -16 -5 -18 -67 -18 l-71
0 0 189 c0 142 3 191 13 195 6 2 37 4 67 3 48 -2 55 -5 55 -22z m205 15 c8 0
32 2 52 6 31 5 41 2 62 -20 26 -25 26 -26 26 -194 0 -141 -3 -171 -15 -176
-27 -10 -35 31 -35 183 0 139 -2 151 -19 161 -16 8 -23 6 -35 -12 -13 -18 -16
-53 -16 -175 0 -95 -4 -153 -10 -153 -5 0 -13 -1 -17 -2 -5 -2 -10 70 -13 160
-5 149 -7 165 -25 178 -18 13 -22 13 -37 -7 -15 -18 -18 -43 -18 -175 0 -147
-1 -154 -20 -154 -19 0 -20 7 -20 174 l0 175 27 21 c21 17 36 20 63 16 19 -4
42 -6 50 -6z m351 -9 c23 -18 24 -26 27 -161 2 -91 -1 -152 -8 -170 -22 -52
-95 -66 -135 -25 -24 23 -25 28 -25 175 0 147 1 152 25 175 30 31 83 33 116 6z
m309 9 c30 -16 40 -73 40 -225 0 -142 -6 -170 -36 -158 -10 4 -14 24 -14 69
l0 64 -40 0 -40 0 0 -64 c0 -47 -4 -65 -15 -70 -27 -10 -35 30 -35 166 0 142
10 201 38 217 22 13 78 14 102 1z m247 -24 c20 -24 23 -38 23 -110 0 -101 -18
-132 -81 -142 l-39 -7 0 -47 c0 -53 -22 -74 -40 -40 -14 26 -13 336 1 362 9
18 18 20 62 15 39 -3 56 -11 74 -31z m216 5 c19 -19 22 -32 22 -115 0 -109
-13 -132 -77 -142 -38 -7 -38 -7 -38 -54 0 -49 -17 -69 -39 -47 -16 16 -15
359 2 376 19 20 104 8 130 -18z"/>
<path d="M856 1584 c-12 -11 -16 -35 -16 -85 l0 -69 41 0 41 0 -4 76 c-2 52
-8 78 -18 84 -21 13 -26 12 -44 -6z"/>
<path d="M1380 1521 c0 -39 5 -73 10 -76 6 -4 22 1 35 9 20 13 25 25 25 57 0
53 -15 79 -45 79 -24 0 -25 -2 -25 -69z"/>
<path d="M1840 1495 c0 -94 0 -95 25 -95 32 0 45 26 45 95 0 69 -13 95 -45 95
-25 0 -25 -1 -25 -95z"/>
<path d="M2262 1578 c-8 -8 -12 -53 -12 -138 0 -130 6 -150 42 -150 29 0 38
34 38 150 0 61 -5 120 -10 131 -12 21 -40 25 -58 7z"/>
<path d="M2570 1440 l0 -150 25 0 c37 0 45 27 45 150 0 123 -8 150 -45 150
l-25 0 0 -150z"/>
<path d="M3365 1578 c-3 -8 -4 -75 -3 -149 l3 -134 27 -3 c36 -4 40 12 36 168
l-3 125 -28 3 c-16 2 -29 -2 -32 -10z"/>
<path d="M3686 1584 c-12 -11 -16 -35 -16 -85 l0 -69 40 0 40 0 0 69 c0 67
-14 101 -40 101 -5 0 -16 -7 -24 -16z"/>
<path d="M3910 1495 c0 -92 1 -95 23 -95 38 0 47 19 47 95 0 76 -9 95 -47 95
-22 0 -23 -3 -23 -95z"/>
<path d="M4130 1495 c0 -92 1 -95 23 -95 38 0 47 19 47 95 0 76 -9 95 -47 95
-22 0 -23 -3 -23 -95z"/>
</g>
</svg>
